<svg width="20" height="18" viewBox="0 0 20 18" fill="none" xmlns="http://www.w3.org/2000/svg">
    <path fill-rule="evenodd" clip-rule="evenodd" d="M18.8758 7.30057L18.907 7.30797H5.52391L9.73106 2.73921C9.93708 2.51616 10.0501 2.21399 10.0501 1.89685C10.0501 1.57971 9.93708 1.27966 9.73106 1.05608L9.07643 0.346388C8.87057 0.123332 8.59626 0 8.30374 0C8.01106 0 7.73659 0.122451 7.53073 0.345507L0.318866 8.15931C0.112199 8.38325 -0.000808652 8.68154 4.35632e-06 8.99885C-0.000808652 9.31793 0.112199 9.6164 0.318866 9.83998L7.53073 17.6545C7.73659 17.8774 8.0109 18 8.30374 18C8.59626 18 8.87057 17.8772 9.07643 17.6545L9.73106 16.9448C9.93708 16.7221 10.0501 16.4247 10.0501 16.1076C10.0501 15.7906 9.93708 15.5089 9.73106 15.286L5.47643 10.6917H18.8907C19.4935 10.6917 20 10.1288 20 9.47598V8.47223C20 7.81945 19.4785 7.30057 18.8758 7.30057Z" fill="white"/>
</svg>
