<svg width="14" height="14" viewBox="0 0 14 14" fill="none" xmlns="http://www.w3.org/2000/svg">
<path d="M7 1.3125C3.8582 1.3125 1.3125 3.8582 1.3125 7C1.3125 10.1418 3.8582 12.6875 7 12.6875C10.1418 12.6875 12.6875 10.1418 12.6875 7C12.6875 3.8582 10.1418 1.3125 7 1.3125ZM7.38281 7.49219C7.38281 7.70273 7.21055 7.875 7 7.875H4.375C4.16445 7.875 3.99219 7.70273 3.99219 7.49219C3.99219 7.28164 4.16445 7.10938 4.375 7.10938H6.61719V3.5C6.61719 3.28945 6.78945 3.11719 7 3.11719C7.21055 3.11719 7.38281 3.28945 7.38281 3.5V7.49219Z" fill="white"/>
</svg>
