<svg width="60" height="60" viewBox="0 0 60 60" fill="none" xmlns="http://www.w3.org/2000/svg">
<path d="M41.9167 24.5834H18.0833C17.4875 24.5834 17 24.0959 17 23.5001C17 22.9042 17.4875 22.4167 18.0833 22.4167H41.9167C42.5125 22.4167 43 22.9042 43 23.5001C43 24.0959 42.5125 24.5834 41.9167 24.5834Z" fill="#676767"/>
<path d="M41.9167 31.0834H18.0833C17.4875 31.0834 17 30.5959 17 30.0001C17 29.4042 17.4875 28.9167 18.0833 28.9167H41.9167C42.5125 28.9167 43 29.4042 43 30.0001C43 30.5959 42.5125 31.0834 41.9167 31.0834Z" fill="#676767"/>
<path d="M41.9167 37.5834H18.0833C17.4875 37.5834 17 37.0959 17 36.5001C17 35.9042 17.4875 35.4167 18.0833 35.4167H41.9167C42.5125 35.4167 43 35.9042 43 36.5001C43 37.0959 42.5125 37.5834 41.9167 37.5834Z" fill="#676767"/>
</svg>
