<svg width="20" height="20" viewBox="0 0 20 20" fill="none" xmlns="http://www.w3.org/2000/svg">
<path d="M10 0C4.486 0 0 4.486 0 10C0 11.9401 0.554036 13.8148 1.60449 15.4336L0.0221354 19.5469C-0.0244141 19.6686 0.0039062 19.8063 0.0947265 19.8994C0.158529 19.9648 0.245117 20 0.333333 20C0.371094 20 0.408854 19.9938 0.445313 19.9805L4.68685 18.4655C6.2832 19.4701 8.11654 20 10 20C15.514 20 20 15.514 20 10C20 4.486 15.514 0 10 0ZM14.6667 12.7575C14.6667 13.6169 13.6038 14.6667 12.3636 14.6667C11.1413 14.6667 8.78613 13.1966 7.7946 12.2054C6.80339 11.2139 5.33333 8.85872 5.33333 7.63639C5.33333 6.39616 6.38314 5.33333 7.24251 5.33333H8.03027C8.15723 5.33333 8.27344 5.4056 8.32943 5.51953C8.32975 5.52018 8.80371 6.48503 9.11458 7.09017C9.45703 7.75619 8.77572 8.55664 8.41602 8.91309C8.54297 9.24805 8.86296 9.96712 9.44792 10.5521C10.0329 11.137 10.752 11.457 11.0869 11.584C11.4434 11.2246 12.2451 10.5446 12.9098 10.8854C13.515 11.1963 14.4798 11.6702 14.4805 11.6706C14.5944 11.7266 14.6667 11.8428 14.6667 11.9697V12.7575Z" fill="#B55E65"/>
</svg>
