<svg width="58" height="58" viewBox="0 0 58 58" fill="none" xmlns="http://www.w3.org/2000/svg">
<path d="M10.5455 0C4.74888 0 0 4.74887 0 10.5455V47.4545C0 53.2511 4.74888 58 10.5455 58H47.4545C53.2511 58 58 53.2511 58 47.4545V10.5455C58 4.74887 53.2511 0 47.4545 0H10.5455ZM10.5455 5.27273H47.4545C50.4212 5.27273 52.7273 7.57876 52.7273 10.5455V47.4545C52.7273 50.4212 50.4212 52.7273 47.4545 52.7273H10.5455C7.57875 52.7273 5.27273 50.4212 5.27273 47.4545V10.5455C5.27273 7.57876 7.57875 5.27273 10.5455 5.27273Z" fill="#FDFDFD"/>
<rect x="18.707" y="37.0234" width="26.4561" height="4.07018" rx="2.03509" transform="rotate(-45 18.707 37.0234)" fill="#FDFDFD"/>
<rect x="37.0234" y="39.9014" width="26.4561" height="4.07018" rx="2.03509" transform="rotate(-135 37.0234 39.9014)" fill="#FDFDFD"/>
</svg>
